<mxfile host="app.diagrams.net" modified="2024-06-24T13:34:47.306Z" agent="Mozilla/5.0 (Windows NT 10.0; Win64; x64) AppleWebKit/537.36 (KHTML, like Gecko) Chrome/126.0.0.0 Safari/537.36" version="24.6.2" etag="Edj-pU0mDPO6-xERmlnZ" type="github">
  <diagram name="Страница — 1" id="3AN4w1fQa7TxTvFdu2Ma">
    <mxGraphModel>
      <root>
        <mxCell id="0" />
        <mxCell id="1" parent="0" />
      </root>
    </mxGraphModel>
  </diagram>
</mxfile>
